# Blender v2.54 (sub 0) OBJ File: 'quit.blend'
# www.blender.org
mtllib Torus.mtl
o Torus.001
v 1.000000 0.100000 0.500000
v 0.986602 0.150000 0.500000
v 0.950000 0.186602 0.500000
v 0.900000 0.200000 0.500000
v 0.850000 0.186602 0.500000
v 0.813397 0.150000 0.500000
v 0.800000 0.100000 0.500000
v 0.813397 0.050000 0.500000
v 0.850000 0.013398 0.500000
v 0.900000 0.000000 0.500000
v 0.950000 0.013398 0.500000
v 0.986602 0.050000 0.500000
v 0.995722 0.100000 0.434737
v 0.982440 0.150000 0.436486
v 0.946150 0.186602 0.441263
v 0.896578 0.200000 0.447790
v 0.847006 0.186602 0.454316
v 0.810716 0.150000 0.459094
v 0.797433 0.100000 0.460842
v 0.810716 0.050000 0.459094
v 0.847006 0.013398 0.454316
v 0.896578 0.000000 0.447790
v 0.946150 0.013398 0.441263
v 0.982440 0.050000 0.436486
v 0.982963 0.100000 0.370591
v 0.970022 0.150000 0.374058
v 0.934666 0.186602 0.383532
v 0.886370 0.200000 0.396472
v 0.838074 0.186602 0.409414
v 0.802718 0.150000 0.418887
v 0.789778 0.100000 0.422354
v 0.802718 0.050000 0.418887
v 0.838074 0.013398 0.409414
v 0.886370 0.000000 0.396472
v 0.934666 0.013398 0.383532
v 0.970022 0.050000 0.374058
v 0.961940 0.100000 0.308658
v 0.949562 0.150000 0.313785
v 0.915746 0.186602 0.327792
v 0.869552 0.200000 0.346927
v 0.823358 0.186602 0.366061
v 0.789541 0.150000 0.380068
v 0.777164 0.100000 0.385195
v 0.789541 0.050000 0.380068
v 0.823358 0.013398 0.366061
v 0.869552 0.000000 0.346927
v 0.915746 0.013398 0.327792
v 0.949562 0.050000 0.313785
v 0.933012 0.100000 0.250000
v 0.921410 0.150000 0.256699
v 0.889711 0.186602 0.275000
v 0.846410 0.200000 0.300000
v 0.803109 0.186602 0.325000
v 0.771410 0.150000 0.343301
v 0.759808 0.100000 0.350000
v 0.771410 0.050000 0.343302
v 0.803109 0.013398 0.325000
v 0.846410 0.000000 0.300000
v 0.889711 0.013398 0.275000
v 0.921410 0.050000 0.256699
v 0.896676 0.100000 0.195620
v 0.886048 0.150000 0.203775
v 0.857009 0.186602 0.226058
v 0.817341 0.200000 0.256496
v 0.777674 0.186602 0.286934
v 0.748635 0.150000 0.309216
v 0.738006 0.100000 0.317372
v 0.748635 0.050000 0.309216
v 0.777674 0.013398 0.286934
v 0.817341 0.000000 0.256496
v 0.857009 0.013398 0.226058
v 0.886048 0.050000 0.203775
v 0.853553 0.100000 0.146447
v 0.844080 0.150000 0.155920
v 0.818198 0.186602 0.181802
v 0.782842 0.200000 0.217157
v 0.747487 0.186602 0.252513
v 0.721605 0.150000 0.278395
v 0.712132 0.100000 0.287868
v 0.721605 0.050000 0.278395
v 0.747487 0.013398 0.252513
v 0.782842 0.000000 0.217157
v 0.818198 0.013398 0.181802
v 0.844080 0.050000 0.155920
v 0.804380 0.100000 0.103324
v 0.796225 0.150000 0.113952
v 0.773942 0.186602 0.142991
v 0.743504 0.200000 0.182659
v 0.713066 0.186602 0.222326
v 0.690784 0.150000 0.251365
v 0.682628 0.100000 0.261994
v 0.690784 0.050000 0.251365
v 0.713066 0.013398 0.222326
v 0.743504 0.000000 0.182659
v 0.773942 0.013398 0.142991
v 0.796225 0.050000 0.113952
v 0.750000 0.100000 0.066988
v 0.743301 0.150000 0.078590
v 0.725000 0.186602 0.110289
v 0.700000 0.200000 0.153590
v 0.675000 0.186602 0.196891
v 0.656698 0.150000 0.228590
v 0.650000 0.100000 0.240192
v 0.656698 0.050000 0.228590
v 0.675000 0.013398 0.196891
v 0.700000 0.000000 0.153590
v 0.725000 0.013398 0.110289
v 0.743301 0.050000 0.078590
v 0.691342 0.100000 0.038060
v 0.686215 0.150000 0.050438
v 0.672207 0.186602 0.084254
v 0.653073 0.200000 0.130448
v 0.633939 0.186602 0.176642
v 0.619932 0.150000 0.210459
v 0.614805 0.100000 0.222836
v 0.619932 0.050000 0.210459
v 0.633939 0.013398 0.176642
v 0.653073 0.000000 0.130448
v 0.672207 0.013398 0.084254
v 0.686215 0.050000 0.050438
v 0.629409 0.100000 0.017037
v 0.625942 0.150000 0.029978
v 0.616468 0.186602 0.065334
v 0.603528 0.200000 0.113630
v 0.590586 0.186602 0.161926
v 0.581113 0.150000 0.197282
v 0.577646 0.100000 0.210222
v 0.581113 0.050000 0.197282
v 0.590586 0.013398 0.161926
v 0.603528 0.000000 0.113630
v 0.616468 0.013398 0.065334
v 0.625942 0.050000 0.029978
v 0.565263 0.100000 0.004278
v 0.563514 0.150000 0.017560
v 0.558737 0.186602 0.053850
v 0.552210 0.200000 0.103422
v 0.545684 0.186602 0.152994
v 0.540906 0.150000 0.189284
v 0.539158 0.100000 0.202567
v 0.540906 0.050000 0.189284
v 0.545684 0.013398 0.152994
v 0.552210 0.000000 0.103422
v 0.558737 0.013398 0.053850
v 0.563514 0.050000 0.017560
v 0.500000 0.100000 0.000000
v 0.500000 0.150000 0.013398
v 0.500000 0.186602 0.050000
v 0.500000 0.200000 0.100000
v 0.500000 0.186602 0.150000
v 0.500000 0.150000 0.186603
v 0.500000 0.100000 0.200000
v 0.500000 0.050000 0.186603
v 0.500000 0.013398 0.150000
v 0.500000 0.000000 0.100000
v 0.500000 0.013398 0.050000
v 0.500000 0.050000 0.013398
v 0.434737 0.100000 0.004278
v 0.436486 0.150000 0.017560
v 0.441263 0.186602 0.053850
v 0.447789 0.200000 0.103422
v 0.454316 0.186602 0.152994
v 0.459093 0.150000 0.189284
v 0.460842 0.100000 0.202567
v 0.459093 0.050000 0.189284
v 0.454316 0.013398 0.152994
v 0.447789 0.000000 0.103422
v 0.441263 0.013398 0.053850
v 0.436486 0.050000 0.017560
v 0.370590 0.100000 0.017037
v 0.374058 0.150000 0.029978
v 0.383531 0.186602 0.065334
v 0.396472 0.200000 0.113630
v 0.409413 0.186602 0.161926
v 0.418887 0.150000 0.197282
v 0.422354 0.100000 0.210222
v 0.418887 0.050000 0.197282
v 0.409413 0.013398 0.161926
v 0.396472 0.000000 0.113630
v 0.383531 0.013398 0.065334
v 0.374058 0.050000 0.029978
v 0.308658 0.100000 0.038060
v 0.313785 0.150000 0.050438
v 0.327792 0.186602 0.084254
v 0.346926 0.200000 0.130448
v 0.366061 0.186602 0.176642
v 0.380068 0.150000 0.210459
v 0.385195 0.100000 0.222836
v 0.380068 0.050000 0.210459
v 0.366061 0.013398 0.176642
v 0.346926 0.000000 0.130448
v 0.327792 0.013398 0.084254
v 0.313785 0.050000 0.050438
v 0.250000 0.100000 0.066988
v 0.256698 0.150000 0.078590
v 0.275000 0.186602 0.110289
v 0.300000 0.200000 0.153590
v 0.325000 0.186602 0.196891
v 0.343301 0.150000 0.228590
v 0.350000 0.100000 0.240192
v 0.343301 0.050000 0.228590
v 0.325000 0.013398 0.196891
v 0.300000 0.000000 0.153590
v 0.275000 0.013398 0.110289
v 0.256698 0.050000 0.078590
v 0.195619 0.100000 0.103324
v 0.203775 0.150000 0.113952
v 0.226057 0.186602 0.142991
v 0.256495 0.200000 0.182659
v 0.286933 0.186602 0.222326
v 0.309216 0.150000 0.251365
v 0.317372 0.100000 0.261994
v 0.309216 0.050000 0.251365
v 0.286933 0.013398 0.222326
v 0.256495 0.000000 0.182659
v 0.226057 0.013398 0.142991
v 0.203775 0.050000 0.113952
v 0.146446 0.100000 0.146447
v 0.155920 0.150000 0.155920
v 0.181802 0.186602 0.181802
v 0.217157 0.200000 0.217157
v 0.252512 0.186602 0.252513
v 0.278394 0.150000 0.278395
v 0.287868 0.100000 0.287868
v 0.278394 0.050000 0.278395
v 0.252512 0.013398 0.252513
v 0.217157 0.000000 0.217158
v 0.181802 0.013398 0.181802
v 0.155920 0.050000 0.155920
v 0.103323 0.100000 0.195620
v 0.113952 0.150000 0.203775
v 0.142991 0.186602 0.226058
v 0.182658 0.200000 0.256496
v 0.222326 0.186602 0.286934
v 0.251365 0.150000 0.309216
v 0.261994 0.100000 0.317372
v 0.251365 0.050000 0.309216
v 0.222326 0.013398 0.286934
v 0.182658 0.000000 0.256496
v 0.142991 0.013398 0.226058
v 0.113952 0.050000 0.203775
v 0.066987 0.100000 0.250000
v 0.078590 0.150000 0.256699
v 0.110288 0.186602 0.275000
v 0.153590 0.200000 0.300000
v 0.196891 0.186602 0.325000
v 0.228590 0.150000 0.343301
v 0.240192 0.100000 0.350000
v 0.228590 0.050000 0.343301
v 0.196891 0.013398 0.325000
v 0.153590 0.000000 0.300000
v 0.110288 0.013398 0.275000
v 0.078590 0.050000 0.256699
v 0.038060 0.100000 0.308658
v 0.050438 0.150000 0.313785
v 0.084254 0.186602 0.327792
v 0.130448 0.200000 0.346927
v 0.176642 0.186602 0.366061
v 0.210458 0.150000 0.380068
v 0.222836 0.100000 0.385195
v 0.210458 0.050000 0.380068
v 0.176642 0.013398 0.366061
v 0.130448 0.000000 0.346927
v 0.084254 0.013398 0.327792
v 0.050438 0.050000 0.313785
v 0.017037 0.100000 0.370590
v 0.029978 0.150000 0.374058
v 0.065333 0.186602 0.383532
v 0.113630 0.200000 0.396472
v 0.161926 0.186602 0.409414
v 0.197281 0.150000 0.418887
v 0.210222 0.100000 0.422354
v 0.197281 0.050000 0.418887
v 0.161926 0.013398 0.409414
v 0.113630 0.000000 0.396472
v 0.065333 0.013398 0.383532
v 0.029978 0.050000 0.374058
v 0.004278 0.100000 0.434737
v 0.017560 0.150000 0.436486
v 0.053850 0.186602 0.441263
v 0.103422 0.200000 0.447790
v 0.152994 0.186602 0.454316
v 0.189284 0.150000 0.459094
v 0.202566 0.100000 0.460842
v 0.189284 0.050000 0.459094
v 0.152994 0.013398 0.454316
v 0.103422 0.000000 0.447790
v 0.053850 0.013398 0.441263
v 0.017560 0.050000 0.436486
v 0.000000 0.100000 0.500000
v 0.013397 0.150000 0.500000
v 0.050000 0.186602 0.500000
v 0.100000 0.200000 0.500000
v 0.150000 0.186602 0.500000
v 0.186602 0.150000 0.500000
v 0.200000 0.100000 0.500000
v 0.186602 0.050000 0.500000
v 0.150000 0.013398 0.500000
v 0.100000 0.000000 0.500000
v 0.050000 0.013398 0.500000
v 0.013397 0.050000 0.500000
v 0.004278 0.100000 0.565263
v 0.017560 0.150000 0.563514
v 0.053850 0.186602 0.558737
v 0.103422 0.200000 0.552211
v 0.152994 0.186602 0.545684
v 0.189284 0.150000 0.540907
v 0.202566 0.100000 0.539158
v 0.189284 0.050000 0.540907
v 0.152994 0.013398 0.545684
v 0.103422 0.000000 0.552211
v 0.053850 0.013398 0.558737
v 0.017560 0.050000 0.563514
v 0.017037 0.100000 0.629410
v 0.029978 0.150000 0.625942
v 0.065333 0.186602 0.616469
v 0.113630 0.200000 0.603528
v 0.161926 0.186602 0.590587
v 0.197281 0.150000 0.581113
v 0.210222 0.100000 0.577646
v 0.197281 0.050000 0.581113
v 0.161926 0.013398 0.590587
v 0.113630 0.000000 0.603528
v 0.065333 0.013398 0.616469
v 0.029978 0.050000 0.625942
v 0.038060 0.100000 0.691342
v 0.050438 0.150000 0.686215
v 0.084254 0.186602 0.672208
v 0.130448 0.200000 0.653074
v 0.176642 0.186602 0.633939
v 0.210458 0.150000 0.619932
v 0.222836 0.100000 0.614805
v 0.210458 0.050000 0.619932
v 0.176642 0.013398 0.633939
v 0.130448 0.000000 0.653074
v 0.084254 0.013398 0.672208
v 0.050438 0.050000 0.686215
v 0.066987 0.100000 0.750000
v 0.078590 0.150000 0.743301
v 0.110288 0.186602 0.725000
v 0.153590 0.200000 0.700000
v 0.196891 0.186602 0.675000
v 0.228590 0.150000 0.656699
v 0.240192 0.100000 0.650000
v 0.228590 0.050000 0.656699
v 0.196891 0.013398 0.675000
v 0.153590 0.000000 0.700000
v 0.110288 0.013398 0.725000
v 0.078590 0.050000 0.743301
v 0.103323 0.100000 0.804381
v 0.113952 0.150000 0.796225
v 0.142991 0.186602 0.773943
v 0.182658 0.200000 0.743505
v 0.222326 0.186602 0.713067
v 0.251365 0.150000 0.690784
v 0.261994 0.100000 0.682628
v 0.251365 0.050000 0.690784
v 0.222326 0.013398 0.713067
v 0.182658 0.000000 0.743505
v 0.142991 0.013398 0.773943
v 0.113952 0.050000 0.796225
v 0.146446 0.100000 0.853554
v 0.155920 0.150000 0.844080
v 0.181802 0.186603 0.818198
v 0.217157 0.200000 0.782843
v 0.252512 0.186602 0.747488
v 0.278394 0.150000 0.721606
v 0.287868 0.100000 0.712132
v 0.278394 0.050000 0.721606
v 0.252512 0.013398 0.747488
v 0.217157 0.000000 0.782843
v 0.181802 0.013398 0.818198
v 0.155920 0.050000 0.844080
v 0.195619 0.100000 0.896677
v 0.203775 0.150000 0.886048
v 0.226057 0.186602 0.857009
v 0.256495 0.200000 0.817342
v 0.286933 0.186602 0.777674
v 0.309216 0.150000 0.748635
v 0.317372 0.100000 0.738006
v 0.309216 0.050000 0.748635
v 0.286933 0.013398 0.777674
v 0.256495 0.000000 0.817342
v 0.226057 0.013398 0.857009
v 0.203775 0.050000 0.886048
v 0.250000 0.100000 0.933013
v 0.256699 0.150000 0.921410
v 0.275000 0.186603 0.889712
v 0.300000 0.200000 0.846410
v 0.325000 0.186603 0.803109
v 0.343301 0.150000 0.771410
v 0.350000 0.100000 0.759808
v 0.343301 0.050000 0.771410
v 0.325000 0.013398 0.803109
v 0.300000 0.000000 0.846410
v 0.275000 0.013398 0.889712
v 0.256699 0.050000 0.921410
v 0.308658 0.100000 0.961940
v 0.313785 0.150000 0.949562
v 0.327792 0.186603 0.915746
v 0.346926 0.200000 0.869552
v 0.366061 0.186602 0.823358
v 0.380068 0.150000 0.789542
v 0.385195 0.100000 0.777164
v 0.380068 0.050000 0.789542
v 0.366061 0.013398 0.823358
v 0.346926 0.000000 0.869552
v 0.327792 0.013398 0.915746
v 0.313785 0.050000 0.949562
v 0.370590 0.100000 0.982963
v 0.374058 0.150000 0.970022
v 0.383531 0.186602 0.934667
v 0.396472 0.200000 0.886370
v 0.409413 0.186602 0.838074
v 0.418887 0.150000 0.802719
v 0.422354 0.100000 0.789778
v 0.418887 0.050000 0.802719
v 0.409413 0.013398 0.838074
v 0.396472 0.000000 0.886370
v 0.383531 0.013398 0.934667
v 0.374058 0.050000 0.970022
v 0.434737 0.100000 0.995722
v 0.436485 0.150000 0.982440
v 0.441263 0.186603 0.946150
v 0.447789 0.200000 0.896578
v 0.454316 0.186603 0.847006
v 0.459093 0.150000 0.810716
v 0.460842 0.100000 0.797434
v 0.459093 0.050000 0.810716
v 0.454316 0.013398 0.847006
v 0.447789 0.000000 0.896578
v 0.441263 0.013398 0.946150
v 0.436485 0.050000 0.982440
v 0.500000 0.100000 1.000000
v 0.500000 0.150000 0.986603
v 0.500000 0.186602 0.950000
v 0.500000 0.200000 0.900000
v 0.500000 0.186602 0.850000
v 0.500000 0.150000 0.813398
v 0.500000 0.100000 0.800000
v 0.500000 0.050000 0.813398
v 0.500000 0.013398 0.850000
v 0.500000 0.000000 0.900000
v 0.500000 0.013398 0.950000
v 0.500000 0.050000 0.986603
v 0.565263 0.100000 0.995722
v 0.563514 0.150000 0.982440
v 0.558737 0.186603 0.946150
v 0.552210 0.200000 0.896578
v 0.545684 0.186603 0.847006
v 0.540906 0.150000 0.810716
v 0.539158 0.100000 0.797434
v 0.540906 0.050000 0.810716
v 0.545684 0.013398 0.847006
v 0.552210 0.000000 0.896578
v 0.558737 0.013398 0.946150
v 0.563514 0.050000 0.982440
v 0.629409 0.100000 0.982963
v 0.625942 0.150000 0.970022
v 0.616468 0.186602 0.934667
v 0.603528 0.200000 0.886370
v 0.590586 0.186602 0.838074
v 0.581113 0.150000 0.802719
v 0.577646 0.100000 0.789778
v 0.581113 0.050000 0.802719
v 0.590586 0.013398 0.838074
v 0.603528 0.000000 0.886370
v 0.616468 0.013398 0.934667
v 0.625942 0.050000 0.970022
v 0.691342 0.100000 0.961940
v 0.686215 0.150000 0.949562
v 0.672208 0.186603 0.915746
v 0.653073 0.200000 0.869552
v 0.633939 0.186602 0.823358
v 0.619932 0.150000 0.789542
v 0.614805 0.100000 0.777164
v 0.619932 0.050000 0.789542
v 0.633939 0.013398 0.823358
v 0.653073 0.000000 0.869552
v 0.672208 0.013398 0.915746
v 0.686215 0.050000 0.949562
v 0.750000 0.100000 0.933013
v 0.743301 0.150000 0.921410
v 0.725000 0.186603 0.889712
v 0.700000 0.200000 0.846410
v 0.675000 0.186603 0.803109
v 0.656698 0.150000 0.771410
v 0.650000 0.100000 0.759808
v 0.656698 0.050000 0.771410
v 0.675000 0.013398 0.803109
v 0.700000 0.000000 0.846410
v 0.725000 0.013398 0.889712
v 0.743301 0.050000 0.921410
v 0.804381 0.100000 0.896677
v 0.796225 0.150000 0.886048
v 0.773942 0.186602 0.857009
v 0.743504 0.200000 0.817342
v 0.713066 0.186602 0.777674
v 0.690784 0.150000 0.748635
v 0.682628 0.100000 0.738006
v 0.690784 0.050000 0.748635
v 0.713066 0.013398 0.777674
v 0.743504 0.000000 0.817342
v 0.773942 0.013398 0.857009
v 0.796225 0.050000 0.886048
v 0.853553 0.100000 0.853554
v 0.844080 0.150000 0.844080
v 0.818198 0.186602 0.818198
v 0.782842 0.200000 0.782843
v 0.747487 0.186602 0.747488
v 0.721605 0.150000 0.721606
v 0.712132 0.100000 0.712132
v 0.721605 0.050000 0.721606
v 0.747487 0.013398 0.747488
v 0.782842 0.000000 0.782843
v 0.818198 0.013398 0.818198
v 0.844080 0.050000 0.844080
v 0.896676 0.100000 0.804381
v 0.886048 0.150000 0.796225
v 0.857009 0.186603 0.773943
v 0.817341 0.200000 0.743505
v 0.777674 0.186602 0.713067
v 0.748635 0.150000 0.690784
v 0.738006 0.100000 0.682628
v 0.748635 0.050000 0.690784
v 0.777674 0.013398 0.713067
v 0.817341 0.000000 0.743505
v 0.857009 0.013398 0.773943
v 0.886048 0.050000 0.796225
v 0.933012 0.100000 0.750000
v 0.921410 0.150000 0.743302
v 0.889711 0.186602 0.725000
v 0.846410 0.200000 0.700000
v 0.803109 0.186602 0.675000
v 0.771410 0.150000 0.656699
v 0.759808 0.100000 0.650000
v 0.771410 0.050000 0.656699
v 0.803109 0.013398 0.675000
v 0.846410 0.000000 0.700000
v 0.889711 0.013398 0.725000
v 0.921410 0.050000 0.743302
v 0.961940 0.100000 0.691342
v 0.949562 0.150000 0.686215
v 0.915746 0.186602 0.672208
v 0.869552 0.200000 0.653074
v 0.823358 0.186602 0.633939
v 0.789541 0.150000 0.619932
v 0.777164 0.100000 0.614805
v 0.789541 0.050000 0.619932
v 0.823358 0.013398 0.633939
v 0.869552 0.000000 0.653074
v 0.915746 0.013398 0.672208
v 0.949562 0.050000 0.686215
v 0.982963 0.100000 0.629410
v 0.970022 0.150000 0.625942
v 0.934666 0.186602 0.616468
v 0.886370 0.200000 0.603528
v 0.838074 0.186602 0.590587
v 0.802718 0.150000 0.581113
v 0.789778 0.100000 0.577646
v 0.802718 0.050000 0.581113
v 0.838074 0.013398 0.590587
v 0.886370 0.000000 0.603528
v 0.934666 0.013398 0.616468
v 0.970022 0.050000 0.625942
v 0.995722 0.100000 0.565263
v 0.982440 0.150000 0.563514
v 0.946150 0.186602 0.558737
v 0.896578 0.200000 0.552211
v 0.847006 0.186602 0.545684
v 0.810716 0.150000 0.540907
v 0.797433 0.100000 0.539158
v 0.810716 0.050000 0.540907
v 0.847006 0.013398 0.545684
v 0.896578 0.000000 0.552211
v 0.946150 0.013398 0.558737
v 0.982440 0.050000 0.563514
vn 1.000000 0.000000 0.000000
vn 0.991424 0.000000 -0.130497
vn 0.858547 0.500107 -0.113010
vn 0.865963 0.500107 0.000000
vn 0.495590 0.866085 -0.065249
vn 0.499863 0.866085 0.000000
vn 0.000000 1.000000 0.000000
vn -0.495590 0.866085 0.065249
vn -0.499863 0.866085 0.000000
vn -0.858547 0.500107 0.113010
vn -0.865963 0.500107 0.000000
vn -0.991424 0.000000 0.130497
vn -0.999969 0.000000 0.000000
vn -0.858547 -0.500107 0.113010
vn -0.865963 -0.500107 0.000000
vn -0.495590 -0.866085 0.065249
vn -0.499863 -0.866085 0.000000
vn 0.000000 -1.000000 0.000000
vn 0.495590 -0.866085 -0.065249
vn 0.499863 -0.866085 0.000000
vn 0.858547 -0.500107 -0.113010
vn 0.865963 -0.500107 0.000000
vn 0.965911 0.000000 -0.258797
vn 0.836451 0.500107 -0.224128
vn 0.482833 0.866085 -0.129368
vn -0.482833 0.866085 0.129368
vn -0.836451 0.500107 0.224097
vn -0.965911 0.000000 0.258797
vn -0.836451 -0.500107 0.224128
vn -0.482833 -0.866085 0.129368
vn 0.482833 -0.866085 -0.129368
vn 0.836451 -0.500107 -0.224128
vn 0.923856 0.000000 -0.382672
vn 0.800043 0.500107 -0.331370
vn 0.461837 0.866085 -0.191290
vn -0.461837 0.866085 0.191290
vn -0.800043 0.500107 0.331370
vn -0.923856 0.000000 0.382672
vn -0.800043 -0.500107 0.331370
vn -0.461837 -0.866085 0.191290
vn 0.461837 -0.866085 -0.191290
vn 0.800043 -0.500107 -0.331370
vn 0.866024 0.000000 -0.499985
vn 0.749931 0.500107 -0.432966
vn 0.432905 0.866085 -0.249916
vn -0.432905 0.866085 0.249916
vn -0.749931 0.500107 0.432966
vn -0.866024 0.000000 0.499985
vn -0.749931 -0.500107 0.432966
vn -0.432905 -0.866085 0.249916
vn 0.432905 -0.866085 -0.249916
vn 0.749931 -0.500107 -0.432966
vn 0.793329 0.000000 -0.608753
vn 0.687002 0.500107 -0.527146
vn 0.396588 0.866085 -0.304300
vn -0.396588 0.866085 0.304300
vn -0.687002 0.500107 0.527146
vn -0.793329 0.000000 0.608753
vn -0.687002 -0.500107 0.527146
vn -0.396588 -0.866085 0.304300
vn 0.396588 -0.866085 -0.304300
vn 0.687002 -0.500107 -0.527146
vn 0.707083 0.000000 -0.707083
vn 0.612323 0.500107 -0.612323
vn 0.353465 0.866085 -0.353465
vn -0.353465 0.866085 0.353465
vn -0.612323 0.500107 0.612323
vn -0.707083 0.000000 0.707083
vn -0.612323 -0.500107 0.612323
vn -0.353465 -0.866085 0.353465
vn 0.353465 -0.866085 -0.353465
vn 0.612323 -0.500107 -0.612323
vn 0.608753 0.000000 -0.793329
vn 0.527146 0.500107 -0.687002
vn 0.304300 0.866085 -0.396588
vn -0.304300 0.866085 0.396588
vn -0.527146 0.500107 0.687002
vn -0.608753 0.000000 0.793329
vn -0.527146 -0.500107 0.687002
vn -0.304300 -0.866085 0.396588
vn 0.304300 -0.866085 -0.396588
vn 0.527146 -0.500107 -0.687002
vn 0.499985 0.000000 -0.866024
vn 0.432966 0.500107 -0.749931
vn 0.249916 0.866085 -0.432905
vn -0.249916 0.866085 0.432905
vn -0.432966 0.500107 0.749931
vn -0.499985 0.000000 0.866024
vn -0.432966 -0.500107 0.749931
vn -0.249916 -0.866085 0.432905
vn 0.249916 -0.866085 -0.432905
vn 0.432966 -0.500107 -0.749931
vn 0.382672 0.000000 -0.923856
vn 0.331370 0.500107 -0.800043
vn 0.191290 0.866085 -0.461837
vn -0.191290 0.866085 0.461837
vn -0.331370 0.500107 0.800043
vn -0.382672 0.000000 0.923856
vn -0.331370 -0.500107 0.800043
vn -0.191290 -0.866085 0.461837
vn 0.191290 -0.866085 -0.461837
vn 0.331370 -0.500107 -0.800043
vn 0.258797 0.000000 -0.965911
vn 0.224097 0.500107 -0.836451
vn 0.129368 0.866085 -0.482833
vn -0.129368 0.866085 0.482833
vn -0.224097 0.500107 0.836451
vn -0.258797 0.000000 0.965911
vn -0.224128 -0.500107 0.836451
vn -0.129368 -0.866085 0.482833
vn 0.129368 -0.866085 -0.482833
vn 0.224097 -0.500107 -0.836451
vn 0.130497 0.000000 -0.991424
vn 0.113010 0.500107 -0.858547
vn 0.065249 0.866085 -0.495590
vn -0.065249 0.866085 0.495590
vn -0.113010 0.500107 0.858547
vn -0.130497 0.000000 0.991424
vn -0.113010 -0.500107 0.858547
vn -0.065249 -0.866085 0.495590
vn 0.065249 -0.866085 -0.495590
vn 0.113010 -0.500107 -0.858547
vn 0.000000 0.000000 -1.000000
vn 0.000000 0.500107 -0.865963
vn 0.000000 0.866085 -0.499863
vn 0.000000 0.866085 0.499863
vn 0.000000 0.500107 0.865963
vn 0.000000 0.000000 1.000000
vn 0.000000 -0.500107 0.865963
vn 0.000000 -0.866085 0.499863
vn 0.000000 -0.866085 -0.499863
vn 0.000000 -0.500107 -0.865963
vn -0.130497 0.000000 -0.991424
vn -0.113010 0.500107 -0.858547
vn -0.065249 0.866085 -0.495590
vn 0.065249 0.866085 0.495590
vn 0.113010 0.500107 0.858547
vn 0.130497 0.000000 0.991424
vn 0.113010 -0.500107 0.858547
vn 0.065249 -0.866085 0.495590
vn -0.065249 -0.866085 -0.495590
vn -0.113010 -0.500107 -0.858547
vn -0.258797 0.000000 -0.965911
vn -0.224097 0.500107 -0.836451
vn -0.129368 0.866085 -0.482833
vn 0.129368 0.866085 0.482833
vn 0.224097 0.500107 0.836451
vn 0.258797 0.000000 0.965911
vn 0.224097 -0.500107 0.836451
vn 0.129368 -0.866085 0.482833
vn -0.129368 -0.866085 -0.482833
vn -0.224097 -0.500107 -0.836451
vn -0.382672 0.000000 -0.923856
vn -0.331370 0.500107 -0.800043
vn -0.191290 0.866085 -0.461837
vn 0.191290 0.866085 0.461837
vn 0.331370 0.500107 0.800043
vn 0.382672 0.000000 0.923856
vn 0.331370 -0.500107 0.800043
vn 0.191290 -0.866085 0.461837
vn -0.191290 -0.866085 -0.461837
vn -0.331370 -0.500107 -0.800043
vn -0.499985 0.000000 -0.866024
vn -0.432966 0.500107 -0.749931
vn -0.249916 0.866085 -0.432905
vn 0.249916 0.866085 0.432905
vn 0.432966 0.500107 0.749931
vn 0.499985 0.000000 0.866024
vn 0.432966 -0.500107 0.749931
vn 0.249916 -0.866085 0.432905
vn -0.249916 -0.866085 -0.432905
vn -0.432966 -0.500107 -0.749931
vn -0.608753 0.000000 -0.793329
vn -0.527146 0.500107 -0.687002
vn -0.304300 0.866085 -0.396588
vn 0.304300 0.866085 0.396588
vn 0.527146 0.500107 0.687002
vn 0.608753 0.000000 0.793329
vn 0.527146 -0.500107 0.687002
vn 0.304300 -0.866085 0.396588
vn -0.304300 -0.866085 -0.396588
vn -0.527146 -0.500107 -0.687002
vn -0.707083 0.000000 -0.707083
vn -0.612323 0.500107 -0.612323
vn -0.353465 0.866085 -0.353465
vn 0.353465 0.866085 0.353465
vn 0.612323 0.500107 0.612323
vn 0.707083 0.000000 0.707083
vn 0.612323 -0.500107 0.612323
vn 0.353465 -0.866085 0.353465
vn -0.353465 -0.866085 -0.353465
vn -0.612323 -0.500107 -0.612323
vn -0.793329 0.000000 -0.608753
vn -0.687002 0.500107 -0.527146
vn -0.396588 0.866085 -0.304300
vn 0.396588 0.866085 0.304300
vn 0.687002 0.500107 0.527146
vn 0.793329 0.000000 0.608753
vn 0.687002 -0.500107 0.527146
vn 0.396588 -0.866085 0.304300
vn -0.396588 -0.866085 -0.304300
vn -0.687002 -0.500107 -0.527146
vn -0.866024 0.000000 -0.499985
vn -0.749931 0.500107 -0.432966
vn -0.432905 0.866085 -0.249916
vn 0.432905 0.866085 0.249916
vn 0.749931 0.500107 0.432966
vn 0.866024 0.000000 0.499985
vn 0.749931 -0.500107 0.432966
vn 0.432905 -0.866085 0.249916
vn -0.432905 -0.866085 -0.249916
vn -0.749931 -0.500107 -0.432966
vn -0.923856 0.000000 -0.382672
vn -0.800043 0.500107 -0.331370
vn -0.461837 0.866085 -0.191290
vn 0.461837 0.866085 0.191290
vn 0.800043 0.500107 0.331370
vn 0.923856 0.000000 0.382672
vn 0.800043 -0.500107 0.331370
vn 0.461837 -0.866085 0.191290
vn -0.461837 -0.866085 -0.191290
vn -0.800043 -0.500107 -0.331370
vn -0.965911 0.000000 -0.258797
vn -0.836451 0.500107 -0.224128
vn -0.482833 0.866085 -0.129368
vn 0.482833 0.866085 0.129368
vn 0.836451 0.500107 0.224128
vn 0.965911 0.000000 0.258797
vn 0.836451 -0.500107 0.224128
vn 0.482833 -0.866085 0.129368
vn -0.482833 -0.866085 -0.129368
vn -0.836451 -0.500107 -0.224128
vn -0.991424 0.000000 -0.130497
vn -0.858547 0.500107 -0.113010
vn -0.495590 0.866085 -0.065249
vn 0.495590 0.866085 0.065249
vn 0.858547 0.500107 0.113010
vn 0.991424 0.000000 0.130497
vn 0.858547 -0.500107 0.113010
vn 0.495590 -0.866085 0.065249
vn -0.495590 -0.866085 -0.065249
vn -0.858547 -0.500107 -0.113010
vn -1.000000 0.000000 0.000000
vn -0.836451 0.500107 0.224128
vn -0.224097 -0.500107 0.836451
vn 0.000000 0.000000 -0.999969
vn -0.836451 0.500107 -0.224097
g Torus.001_Torus.001
usemtl (null)
s 1
f 1//1 13//2 14//3 2//4
f 2//4 14//3 15//5 3//6
f 3//6 15//5 16//7 4//7
f 4//7 16//7 17//8 5//9
f 5//9 17//8 18//10 6//11
f 6//11 18//10 19//12 7//13
f 7//13 19//12 20//14 8//15
f 8//15 20//14 21//16 9//17
f 9//17 21//16 22//18 10//18
f 10//18 22//18 23//19 11//20
f 11//20 23//19 24//21 12//22
f 1//1 12//22 24//21 13//2
f 13//2 25//23 26//24 14//3
f 14//3 26//24 27//25 15//5
f 15//5 27//25 28//7 16//7
f 16//7 28//7 29//26 17//8
f 17//8 29//26 30//27 18//10
f 18//10 30//27 31//28 19//12
f 19//12 31//28 32//29 20//14
f 20//14 32//29 33//30 21//16
f 21//16 33//30 34//18 22//18
f 22//18 34//18 35//31 23//19
f 23//19 35//31 36//32 24//21
f 24//21 36//32 25//23 13//2
f 25//23 37//33 38//34 26//24
f 26//24 38//34 39//35 27//25
f 27//25 39//35 40//7 28//7
f 28//7 40//7 41//36 29//26
f 29//26 41//36 42//37 30//27
f 30//27 42//37 43//38 31//28
f 31//28 43//38 44//39 32//29
f 32//29 44//39 45//40 33//30
f 33//30 45//40 46//18 34//18
f 34//18 46//18 47//41 35//31
f 35//31 47//41 48//42 36//32
f 36//32 48//42 37//33 25//23
f 37//33 49//43 50//44 38//34
f 38//34 50//44 51//45 39//35
f 39//35 51//45 52//7 40//7
f 40//7 52//7 53//46 41//36
f 41//36 53//46 54//47 42//37
f 42//37 54//47 55//48 43//38
f 43//38 55//48 56//49 44//39
f 44//39 56//49 57//50 45//40
f 45//40 57//50 58//18 46//18
f 46//18 58//18 59//51 47//41
f 47//41 59//51 60//52 48//42
f 48//42 60//52 49//43 37//33
f 49//43 61//53 62//54 50//44
f 50//44 62//54 63//55 51//45
f 51//45 63//55 64//7 52//7
f 52//7 64//7 65//56 53//46
f 53//46 65//56 66//57 54//47
f 54//47 66//57 67//58 55//48
f 55//48 67//58 68//59 56//49
f 56//49 68//59 69//60 57//50
f 57//50 69//60 70//18 58//18
f 58//18 70//18 71//61 59//51
f 59//51 71//61 72//62 60//52
f 60//52 72//62 61//53 49//43
f 61//53 73//63 74//64 62//54
f 62//54 74//64 75//65 63//55
f 63//55 75//65 76//7 64//7
f 64//7 76//7 77//66 65//56
f 65//56 77//66 78//67 66//57
f 66//57 78//67 79//68 67//58
f 67//58 79//68 80//69 68//59
f 68//59 80//69 81//70 69//60
f 69//60 81//70 82//18 70//18
f 70//18 82//18 83//71 71//61
f 71//61 83//71 84//72 72//62
f 72//62 84//72 73//63 61//53
f 73//63 85//73 86//74 74//64
f 74//64 86//74 87//75 75//65
f 75//65 87//75 88//7 76//7
f 76//7 88//7 89//76 77//66
f 77//66 89//76 90//77 78//67
f 78//67 90//77 91//78 79//68
f 79//68 91//78 92//79 80//69
f 80//69 92//79 93//80 81//70
f 81//70 93//80 94//18 82//18
f 82//18 94//18 95//81 83//71
f 83//71 95//81 96//82 84//72
f 84//72 96//82 85//73 73//63
f 85//73 97//83 98//84 86//74
f 86//74 98//84 99//85 87//75
f 87//75 99//85 100//7 88//7
f 88//7 100//7 101//86 89//76
f 89//76 101//86 102//87 90//77
f 90//77 102//87 103//88 91//78
f 91//78 103//88 104//89 92//79
f 92//79 104//89 105//90 93//80
f 93//80 105//90 106//18 94//18
f 94//18 106//18 107//91 95//81
f 95//81 107//91 108//92 96//82
f 96//82 108//92 97//83 85//73
f 97//83 109//93 110//94 98//84
f 98//84 110//94 111//95 99//85
f 99//85 111//95 112//7 100//7
f 100//7 112//7 113//96 101//86
f 101//86 113//96 114//97 102//87
f 102//87 114//97 115//98 103//88
f 103//88 115//98 116//99 104//89
f 104//89 116//99 117//100 105//90
f 105//90 117//100 118//18 106//18
f 106//18 118//18 119//101 107//91
f 107//91 119//101 120//102 108//92
f 108//92 120//102 109//93 97//83
f 109//93 121//103 122//104 110//94
f 110//94 122//104 123//105 111//95
f 111//95 123//105 124//7 112//7
f 112//7 124//7 125//106 113//96
f 113//96 125//106 126//107 114//97
f 114//97 126//107 127//108 115//98
f 115//98 127//108 128//109 116//99
f 116//99 128//109 129//110 117//100
f 117//100 129//110 130//18 118//18
f 118//18 130//18 131//111 119//101
f 119//101 131//111 132//112 120//102
f 120//102 132//112 121//103 109//93
f 121//103 133//113 134//114 122//104
f 122//104 134//114 135//115 123//105
f 123//105 135//115 136//7 124//7
f 124//7 136//7 137//116 125//106
f 125//106 137//116 138//117 126//107
f 126//107 138//117 139//118 127//108
f 127//108 139//118 140//119 128//109
f 128//109 140//119 141//120 129//110
f 129//110 141//120 142//18 130//18
f 130//18 142//18 143//121 131//111
f 131//111 143//121 144//122 132//112
f 132//112 144//122 133//113 121//103
f 133//113 145//123 146//124 134//114
f 134//114 146//124 147//125 135//115
f 135//115 147//125 148//7 136//7
f 136//7 148//7 149//126 137//116
f 137//116 149//126 150//127 138//117
f 138//117 150//127 151//128 139//118
f 139//118 151//128 152//129 140//119
f 140//119 152//129 153//130 141//120
f 141//120 153//130 154//18 142//18
f 142//18 154//18 155//131 143//121
f 143//121 155//131 156//132 144//122
f 144//122 156//132 145//123 133//113
f 145//123 157//133 158//134 146//124
f 146//124 158//134 159//135 147//125
f 147//125 159//135 160//7 148//7
f 148//7 160//7 161//136 149//126
f 149//126 161//136 162//137 150//127
f 150//127 162//137 163//138 151//128
f 151//128 163//138 164//139 152//129
f 152//129 164//139 165//140 153//130
f 153//130 165//140 166//18 154//18
f 154//18 166//18 167//141 155//131
f 155//131 167//141 168//142 156//132
f 156//132 168//142 157//133 145//123
f 157//133 169//143 170//144 158//134
f 158//134 170//144 171//145 159//135
f 159//135 171//145 172//7 160//7
f 160//7 172//7 173//146 161//136
f 161//136 173//146 174//147 162//137
f 162//137 174//147 175//148 163//138
f 163//138 175//148 176//149 164//139
f 164//139 176//149 177//150 165//140
f 165//140 177//150 178//18 166//18
f 166//18 178//18 179//151 167//141
f 167//141 179//151 180//152 168//142
f 168//142 180//152 169//143 157//133
f 169//143 181//153 182//154 170//144
f 170//144 182//154 183//155 171//145
f 171//145 183//155 184//7 172//7
f 172//7 184//7 185//156 173//146
f 173//146 185//156 186//157 174//147
f 174//147 186//157 187//158 175//148
f 175//148 187//158 188//159 176//149
f 176//149 188//159 189//160 177//150
f 177//150 189//160 190//18 178//18
f 178//18 190//18 191//161 179//151
f 179//151 191//161 192//162 180//152
f 180//152 192//162 181//153 169//143
f 181//153 193//163 194//164 182//154
f 182//154 194//164 195//165 183//155
f 183//155 195//165 196//7 184//7
f 184//7 196//7 197//166 185//156
f 185//156 197//166 198//167 186//157
f 186//157 198//167 199//168 187//158
f 187//158 199//168 200//169 188//159
f 188//159 200//169 201//170 189//160
f 189//160 201//170 202//18 190//18
f 190//18 202//18 203//171 191//161
f 191//161 203//171 204//172 192//162
f 192//162 204//172 193//163 181//153
f 193//163 205//173 206//174 194//164
f 194//164 206//174 207//175 195//165
f 195//165 207//175 208//7 196//7
f 196//7 208//7 209//176 197//166
f 197//166 209//176 210//177 198//167
f 198//167 210//177 211//178 199//168
f 199//168 211//178 212//179 200//169
f 200//169 212//179 213//180 201//170
f 201//170 213//180 214//18 202//18
f 202//18 214//18 215//181 203//171
f 203//171 215//181 216//182 204//172
f 204//172 216//182 205//173 193//163
f 205//173 217//183 218//184 206//174
f 206//174 218//184 219//185 207//175
f 207//175 219//185 220//7 208//7
f 208//7 220//7 221//186 209//176
f 209//176 221//186 222//187 210//177
f 210//177 222//187 223//188 211//178
f 211//178 223//188 224//189 212//179
f 212//179 224//189 225//190 213//180
f 213//180 225//190 226//18 214//18
f 214//18 226//18 227//191 215//181
f 215//181 227//191 228//192 216//182
f 216//182 228//192 217//183 205//173
f 217//183 229//193 230//194 218//184
f 218//184 230//194 231//195 219//185
f 219//185 231//195 232//7 220//7
f 220//7 232//7 233//196 221//186
f 221//186 233//196 234//197 222//187
f 222//187 234//197 235//198 223//188
f 223//188 235//198 236//199 224//189
f 224//189 236//199 237//200 225//190
f 225//190 237//200 238//18 226//18
f 226//18 238//18 239//201 227//191
f 227//191 239//201 240//202 228//192
f 228//192 240//202 229//193 217//183
f 229//193 241//203 242//204 230//194
f 230//194 242//204 243//205 231//195
f 231//195 243//205 244//7 232//7
f 232//7 244//7 245//206 233//196
f 233//196 245//206 246//207 234//197
f 234//197 246//207 247//208 235//198
f 235//198 247//208 248//209 236//199
f 236//199 248//209 249//210 237//200
f 237//200 249//210 250//18 238//18
f 238//18 250//18 251//211 239//201
f 239//201 251//211 252//212 240//202
f 240//202 252//212 241//203 229//193
f 241//203 253//213 254//214 242//204
f 242//204 254//214 255//215 243//205
f 243//205 255//215 256//7 244//7
f 244//7 256//7 257//216 245//206
f 245//206 257//216 258//217 246//207
f 246//207 258//217 259//218 247//208
f 247//208 259//218 260//219 248//209
f 248//209 260//219 261//220 249//210
f 249//210 261//220 262//18 250//18
f 250//18 262//18 263//221 251//211
f 251//211 263//221 264//222 252//212
f 252//212 264//222 253//213 241//203
f 253//213 265//223 266//224 254//214
f 254//214 266//224 267//225 255//215
f 255//215 267//225 268//7 256//7
f 256//7 268//7 269//226 257//216
f 257//216 269//226 270//227 258//217
f 258//217 270//227 271//228 259//218
f 259//218 271//228 272//229 260//219
f 260//219 272//229 273//230 261//220
f 261//220 273//230 274//18 262//18
f 262//18 274//18 275//231 263//221
f 263//221 275//231 276//232 264//222
f 264//222 276//232 265//223 253//213
f 265//223 277//233 278//234 266//224
f 266//224 278//234 279//235 267//225
f 267//225 279//235 280//7 268//7
f 268//7 280//7 281//236 269//226
f 269//226 281//236 282//237 270//227
f 270//227 282//237 283//238 271//228
f 271//228 283//238 284//239 272//229
f 272//229 284//239 285//240 273//230
f 273//230 285//240 286//18 274//18
f 274//18 286//18 287//241 275//231
f 275//231 287//241 288//242 276//232
f 276//232 288//242 277//233 265//223
f 277//233 289//243 290//11 278//234
f 278//234 290//11 291//9 279//235
f 279//235 291//9 292//7 280//7
f 280//7 292//7 293//6 281//236
f 281//236 293//6 294//4 282//237
f 282//237 294//4 295//1 283//238
f 283//238 295//1 296//22 284//239
f 284//239 296//22 297//20 285//240
f 285//240 297//20 298//18 286//18
f 286//18 298//18 299//17 287//241
f 287//241 299//17 300//15 288//242
f 288//242 300//15 289//243 277//233
f 289//243 301//12 302//10 290//11
f 290//11 302//10 303//8 291//9
f 291//9 303//8 304//7 292//7
f 292//7 304//7 305//5 293//6
f 293//6 305//5 306//3 294//4
f 294//4 306//3 307//2 295//1
f 295//1 307//2 308//21 296//22
f 296//22 308//21 309//19 297//20
f 297//20 309//19 310//18 298//18
f 298//18 310//18 311//16 299//17
f 299//17 311//16 312//14 300//15
f 300//15 312//14 301//12 289//243
f 301//12 313//28 314//244 302//10
f 302//10 314//244 315//26 303//8
f 303//8 315//26 316//7 304//7
f 304//7 316//7 317//25 305//5
f 305//5 317//25 318//24 306//3
f 306//3 318//24 319//23 307//2
f 307//2 319//23 320//32 308//21
f 308//21 320//32 321//31 309//19
f 309//19 321//31 322//18 310//18
f 310//18 322//18 323//30 311//16
f 311//16 323//30 324//29 312//14
f 312//14 324//29 313//28 301//12
f 313//28 325//38 326//37 314//244
f 314//244 326//37 327//36 315//26
f 315//26 327//36 328//7 316//7
f 316//7 328//7 329//35 317//25
f 317//25 329//35 330//34 318//24
f 318//24 330//34 331//33 319//23
f 319//23 331//33 332//42 320//32
f 320//32 332//42 333//41 321//31
f 321//31 333//41 334//18 322//18
f 322//18 334//18 335//40 323//30
f 323//30 335//40 336//39 324//29
f 324//29 336//39 325//38 313//28
f 325//38 337//48 338//47 326//37
f 326//37 338//47 339//46 327//36
f 327//36 339//46 340//7 328//7
f 328//7 340//7 341//45 329//35
f 329//35 341//45 342//44 330//34
f 330//34 342//44 343//43 331//33
f 331//33 343//43 344//52 332//42
f 332//42 344//52 345//51 333//41
f 333//41 345//51 346//18 334//18
f 334//18 346//18 347//50 335//40
f 335//40 347//50 348//49 336//39
f 336//39 348//49 337//48 325//38
f 337//48 349//58 350//57 338//47
f 338//47 350//57 351//56 339//46
f 339//46 351//56 352//7 340//7
f 340//7 352//7 353//55 341//45
f 341//45 353//55 354//54 342//44
f 342//44 354//54 355//53 343//43
f 343//43 355//53 356//62 344//52
f 344//52 356//62 357//61 345//51
f 345//51 357//61 358//18 346//18
f 346//18 358//18 359//60 347//50
f 347//50 359//60 360//59 348//49
f 348//49 360//59 349//58 337//48
f 349//58 361//68 362//67 350//57
f 350//57 362//67 363//66 351//56
f 351//56 363//66 364//7 352//7
f 352//7 364//7 365//65 353//55
f 353//55 365//65 366//64 354//54
f 354//54 366//64 367//63 355//53
f 355//53 367//63 368//72 356//62
f 356//62 368//72 369//71 357//61
f 357//61 369//71 370//18 358//18
f 358//18 370//18 371//70 359//60
f 359//60 371//70 372//69 360//59
f 360//59 372//69 361//68 349//58
f 361//68 373//78 374//77 362//67
f 362//67 374//77 375//76 363//66
f 363//66 375//76 376//7 364//7
f 364//7 376//7 377//75 365//65
f 365//65 377//75 378//74 366//64
f 366//64 378//74 379//73 367//63
f 367//63 379//73 380//82 368//72
f 368//72 380//82 381//81 369//71
f 369//71 381//81 382//18 370//18
f 370//18 382//18 383//80 371//70
f 371//70 383//80 384//79 372//69
f 372//69 384//79 373//78 361//68
f 373//78 385//88 386//87 374//77
f 374//77 386//87 387//86 375//76
f 375//76 387//86 388//7 376//7
f 376//7 388//7 389//85 377//75
f 377//75 389//85 390//84 378//74
f 378//74 390//84 391//83 379//73
f 379//73 391//83 392//92 380//82
f 380//82 392//92 393//91 381//81
f 381//81 393//91 394//18 382//18
f 382//18 394//18 395//90 383//80
f 383//80 395//90 396//89 384//79
f 384//79 396//89 385//88 373//78
f 385//88 397//98 398//97 386//87
f 386//87 398//97 399//96 387//86
f 387//86 399//96 400//7 388//7
f 388//7 400//7 401//95 389//85
f 389//85 401//95 402//94 390//84
f 390//84 402//94 403//93 391//83
f 391//83 403//93 404//102 392//92
f 392//92 404//102 405//101 393//91
f 393//91 405//101 406//18 394//18
f 394//18 406//18 407//100 395//90
f 395//90 407//100 408//99 396//89
f 396//89 408//99 397//98 385//88
f 397//98 409//108 410//107 398//97
f 398//97 410//107 411//106 399//96
f 399//96 411//106 412//7 400//7
f 400//7 412//7 413//105 401//95
f 401//95 413//105 414//104 402//94
f 402//94 414//104 415//103 403//93
f 403//93 415//103 416//112 404//102
f 404//102 416//112 417//111 405//101
f 405//101 417//111 418//18 406//18
f 406//18 418//18 419//110 407//100
f 407//100 419//110 420//245 408//99
f 408//99 420//245 409//108 397//98
f 409//108 421//118 422//117 410//107
f 410//107 422//117 423//116 411//106
f 411//106 423//116 424//7 412//7
f 412//7 424//7 425//115 413//105
f 413//105 425//115 426//114 414//104
f 414//104 426//114 427//113 415//103
f 415//103 427//113 428//122 416//112
f 416//112 428//122 429//121 417//111
f 417//111 429//121 430//18 418//18
f 418//18 430//18 431//120 419//110
f 419//110 431//120 432//119 420//245
f 420//245 432//119 421//118 409//108
f 421//118 433//128 434//127 422//117
f 422//117 434//127 435//126 423//116
f 423//116 435//126 436//7 424//7
f 424//7 436//7 437//125 425//115
f 425//115 437//125 438//124 426//114
f 426//114 438//124 439//246 427//113
f 427//113 439//246 440//132 428//122
f 428//122 440//132 441//131 429//121
f 429//121 441//131 442//18 430//18
f 430//18 442//18 443//130 431//120
f 431//120 443//130 444//129 432//119
f 432//119 444//129 433//128 421//118
f 433//128 445//138 446//137 434//127
f 434//127 446//137 447//136 435//126
f 435//126 447//136 448//7 436//7
f 436//7 448//7 449//135 437//125
f 437//125 449//135 450//134 438//124
f 438//124 450//134 451//133 439//246
f 439//246 451//133 452//142 440//132
f 440//132 452//142 453//141 441//131
f 441//131 453//141 454//18 442//18
f 442//18 454//18 455//140 443//130
f 443//130 455//140 456//139 444//129
f 444//129 456//139 445//138 433//128
f 445//138 457//148 458//147 446//137
f 446//137 458//147 459//146 447//136
f 447//136 459//146 460//7 448//7
f 448//7 460//7 461//145 449//135
f 449//135 461//145 462//144 450//134
f 450//134 462//144 463//143 451//133
f 451//133 463//143 464//152 452//142
f 452//142 464//152 465//151 453//141
f 453//141 465//151 466//18 454//18
f 454//18 466//18 467//150 455//140
f 455//140 467//150 468//149 456//139
f 456//139 468//149 457//148 445//138
f 457//148 469//158 470//157 458//147
f 458//147 470//157 471//156 459//146
f 459//146 471//156 472//7 460//7
f 460//7 472//7 473//155 461//145
f 461//145 473//155 474//154 462//144
f 462//144 474//154 475//153 463//143
f 463//143 475//153 476//162 464//152
f 464//152 476//162 477//161 465//151
f 465//151 477//161 478//18 466//18
f 466//18 478//18 479//160 467//150
f 467//150 479//160 480//159 468//149
f 468//149 480//159 469//158 457//148
f 469//158 481//168 482//167 470//157
f 470//157 482//167 483//166 471//156
f 471//156 483//166 484//7 472//7
f 472//7 484//7 485//165 473//155
f 473//155 485//165 486//164 474//154
f 474//154 486//164 487//163 475//153
f 475//153 487//163 488//172 476//162
f 476//162 488//172 489//171 477//161
f 477//161 489//171 490//18 478//18
f 478//18 490//18 491//170 479//160
f 479//160 491//170 492//169 480//159
f 480//159 492//169 481//168 469//158
f 481//168 493//178 494//177 482//167
f 482//167 494//177 495//176 483//166
f 483//166 495//176 496//7 484//7
f 484//7 496//7 497//175 485//165
f 485//165 497//175 498//174 486//164
f 486//164 498//174 499//173 487//163
f 487//163 499//173 500//182 488//172
f 488//172 500//182 501//181 489//171
f 489//171 501//181 502//18 490//18
f 490//18 502//18 503//180 491//170
f 491//170 503//180 504//179 492//169
f 492//169 504//179 493//178 481//168
f 493//178 505//188 506//187 494//177
f 494//177 506//187 507//186 495//176
f 495//176 507//186 508//7 496//7
f 496//7 508//7 509//185 497//175
f 497//175 509//185 510//184 498//174
f 498//174 510//184 511//183 499//173
f 499//173 511//183 512//192 500//182
f 500//182 512//192 513//191 501//181
f 501//181 513//191 514//18 502//18
f 502//18 514//18 515//190 503//180
f 503//180 515//190 516//189 504//179
f 504//179 516//189 505//188 493//178
f 505//188 517//198 518//197 506//187
f 506//187 518//197 519//196 507//186
f 507//186 519//196 520//7 508//7
f 508//7 520//7 521//195 509//185
f 509//185 521//195 522//194 510//184
f 510//184 522//194 523//193 511//183
f 511//183 523//193 524//202 512//192
f 512//192 524//202 525//201 513//191
f 513//191 525//201 526//18 514//18
f 514//18 526//18 527//200 515//190
f 515//190 527//200 528//199 516//189
f 516//189 528//199 517//198 505//188
f 517//198 529//208 530//207 518//197
f 518//197 530//207 531//206 519//196
f 519//196 531//206 532//7 520//7
f 520//7 532//7 533//205 521//195
f 521//195 533//205 534//204 522//194
f 522//194 534//204 535//203 523//193
f 523//193 535//203 536//212 524//202
f 524//202 536//212 537//211 525//201
f 525//201 537//211 538//18 526//18
f 526//18 538//18 539//210 527//200
f 527//200 539//210 540//209 528//199
f 528//199 540//209 529//208 517//198
f 529//208 541//218 542//217 530//207
f 530//207 542//217 543//216 531//206
f 531//206 543//216 544//7 532//7
f 532//7 544//7 545//215 533//205
f 533//205 545//215 546//214 534//204
f 534//204 546//214 547//213 535//203
f 535//203 547//213 548//222 536//212
f 536//212 548//222 549//221 537//211
f 537//211 549//221 550//18 538//18
f 538//18 550//18 551//220 539//210
f 539//210 551//220 552//219 540//209
f 540//209 552//219 541//218 529//208
f 541//218 553//228 554//227 542//217
f 542//217 554//227 555//226 543//216
f 543//216 555//226 556//7 544//7
f 544//7 556//7 557//225 545//215
f 545//215 557//225 558//247 546//214
f 546//214 558//247 559//223 547//213
f 547//213 559//223 560//232 548//222
f 548//222 560//232 561//231 549//221
f 549//221 561//231 562//18 550//18
f 550//18 562//18 563//230 551//220
f 551//220 563//230 564//229 552//219
f 552//219 564//229 553//228 541//218
f 553//228 565//238 566//237 554//227
f 554//227 566//237 567//236 555//226
f 555//226 567//236 568//7 556//7
f 556//7 568//7 569//235 557//225
f 557//225 569//235 570//234 558//247
f 558//247 570//234 571//233 559//223
f 559//223 571//233 572//242 560//232
f 560//232 572//242 573//241 561//231
f 561//231 573//241 574//18 562//18
f 562//18 574//18 575//240 563//230
f 563//230 575//240 576//239 564//229
f 564//229 576//239 565//238 553//228
f 565//238 1//1 2//4 566//237
f 566//237 2//4 3//6 567//236
f 567//236 3//6 4//7 568//7
f 568//7 4//7 5//9 569//235
f 569//235 5//9 6//11 570//234
f 570//234 6//11 7//13 571//233
f 571//233 7//13 8//15 572//242
f 572//242 8//15 9//17 573//241
f 573//241 9//17 10//18 574//18
f 574//18 10//18 11//20 575//240
f 575//240 11//20 12//22 576//239
f 576//239 12//22 1//1 565//238
