v -0.014908 -0.397283 0.264486
v -0.013286 -0.580392 0.453209
v 0.007689 -0.301710 0.286343
v -0.003294 0.271886 0.294892
v -0.063365 -0.402393 0.191840
v 0.016714 -0.718727 0.722962
v -0.000100 -0.570107 0.400882
v 0.008978 -0.240602 0.221938
v -0.001309 -0.796801 0.638845
v 0.003625 0.160652 0.307585
v -0.080642 -0.377932 0.135512
v -0.040286 -0.631778 0.158493
v -0.003867 -0.619263 0.477556
v -0.099212 0.481876 0.332023
v -0.052084 0.228154 0.255416
v -0.102271 0.604207 -0.301245
v 0.007662 -0.165398 0.444427
v -0.140725 0.486216 -0.533304
v -0.018376 -0.512508 0.375094
v -0.126353 0.463083 0.062644
v -0.011383 -0.401267 0.314485
v -0.040700 -0.486113 0.258843
v -0.005102 0.294623 0.282703
v -0.108877 0.375212 0.371709
v -0.106709 -0.626022 -0.190358
v 0.005074 -0.122180 0.242518
v -0.005347 -0.008492 0.257114
v -0.000901 -0.745543 0.541096
v -0.080371 -0.289629 0.098630
v -0.103704 0.568249 -0.479876
v 0.007665 -0.729844 0.765275
v 0.001455 0.055567 0.251476
v -0.065554 -0.389681 0.201588
v -0.004172 0.210030 0.350216
v 0.013788 0.809704 0.844151
v 0.023378 -0.745506 0.671719
v 0.021199 0.529918 0.146117
v -0.078593 -0.639935 0.725882
v -0.002227 -0.813306 0.694609
v 0.010196 -0.703110 0.619510
v 0.000473 0.055030 0.241232
v 0.129989 -0.255137 0.023336
v -0.019934 -0.237830 0.296746
v -0.142152 0.416333 -0.002383
v 0.145314 -0.301000 0.262056
v 0.002672 0.089292 0.260926
v 0.136248 0.486131 0.044660
v 0.017844 0.828829 0.942393
v -0.000135 -0.102968 0.218565
v -0.102678 -0.606399 -0.248612
v 0.097098 -0.232756 0.137928
v 0.001955 -0.991282 0.674079
v 0.101174 -0.245943 0.190913
v -0.087022 -0.745756 -0.426953
v -0.181215 -0.795874 0.606253
v 0.000498 0.188501 0.294734
v -0.099494 -0.624231 -0.291153
v -0.005857 -0.290889 0.323417
v -0.030149 0.130186 0.252332
v -0.000301 -0.889431 0.582199
v 0.006502 -0.024328 0.240840
v 0.138113 -0.827645 0.793921
v 0.035995 0.464590 0.268171
v 0.024552 -0.750617 0.749763
v 0.064482 0.428920 0.329886
v 0.089135 -0.099362 -0.440987
v 0.002866 -0.818470 0.619824
v -0.009635 0.253963 0.348920
v 0.251497 -0.652563 0.696399
v -0.104354 0.546437 -0.466572
v -0.015158 -0.423036 0.229996
v -0.009344 -0.760679 0.653171
v -0.013913 0.164823 0.334890
v 0.000503 0.191538 0.346988
v 0.107155 0.535427 0.089908
v 0.091422 0.726770 -0.186155
v 0.146722 -0.813097 0.639969
v -0.088735 0.639352 -0.247102
v 0.100313 0.755514 -0.339032
v 0.004959 -0.159129 0.230182
v 0.007027 0.196835 0.310611
v -0.110707 0.567686 -0.189605
v 0.072056 0.335574 0.199623
v -0.065298 -0.858964 -0.519441
v 0.028047 -0.122544 0.182386
v -0.085022 0.333938 0.234832
v 0.019602 -0.793239 0.706649
v 0.000879 -0.586150 0.413364
v 0.150389 0.451561 0.069185
v -0.053373 -1.086361 0.534028
v 0.121914 0.474650 0.139632
v -0.117595 -0.820896 0.771673
v -0.108310 0.454704 -0.532475
v -0.093597 -0.687522 -0.305705
v 0.001824 0.567600 0.503777
v -0.026285 0.153946 0.264748
v -0.207482 -0.747359 0.749014
v 0.128522 0.439445 0.191582
v -0.087381 -0.775447 -0.423768
v 0.083703 -0.122454 -0.446914
v -0.041514 -0.539955 0.301379
v -0.000822 -1.115127 0.578545
v 0.019423 -0.809808 0.727488
v 0.011422 0.663110 0.623524
v -0.087401 0.335507 0.380518
v -0.014118 -0.597461 0.526437
v -0.108628 -0.182097 0.352922
v -0.049426 -0.174391 0.151801
v -0.001880 -0.827261 0.571202
v -0.035619 -0.534197 -0.020336
v 0.093922 0.390387 0.352722
v 0.006632 0.607844 0.605649
v 0.123707 0.410753 0.197570
v -0.063071 -0.356803 0.157216
v -0.061279 0.444603 0.226301
v -0.088079 -0.420661 0.139754
v 0.146729 0.459380 0.048905
v -0.211544 -0.736384 0.574367
v -0.010278 0.292335 0.358277
v 0.009201 0.798875 1.060950
v 0.013781 0.806036 0.907202
v 0.144679 -0.786297 0.854093
v 0.000999 -0.687255 0.594809
v 0.001260 -0.923609 0.583042
v -0.001354 -0.881722 0.578650
v 0.172513 -0.768444 0.848339
v -0.089316 -0.657879 -0.362688
v 0.195008 -0.770912 0.681628
v -0.036116 -0.951360 0.548574
v -0.126324 -0.464765 -0.093034
v -0.001786 -0.300957 0.348471
v 0.063599 0.209351 0.194710
v -0.008015 -0.842622 0.765498
v 0.014152 -0.839587 0.745487
v -0.204440 -0.767008 0.712777
v 0.114120 0.625988 -0.069562
v -0.091035 -0.443729 0.043933
v -0.001979 -0.854895 0.619826
v 0.134719 0.377886 0.103345
v 0.177414 -0.798603 0.816878
v -0.000872 -0.779060 0.671840
v 0.088491 -0.831394 0.826651
v 0.181925 -0.773214 0.616989
v -0.088356 -0.826475 0.813335
v -0.194647 -0.756574 0.566926
v -0.058146 -0.822997 -0.516227
v -0.017246 -0.378300 0.276566
v -0.000002 0.044931 0.218992
v -0.108903 0.502274 0.030053
v 0.002744 0.523354 0.417308
v -0.153849 -0.819418 0.752323
v 0.208687 -0.752959 0.796733
v 0.084641 -0.097422 -0.484080
v 0.115502 0.571198 0.015639
v 0.012158 -0.818138 0.769438
v -0.109406 0.542179 -0.107218
v 0.016647 -0.957096 0.571838
v 0.007505 -0.055996 0.429188
v 0.042913 -1.010140 0.539387
v 0.093839 -0.134907 0.112484
v -0.000136 -1.027854 0.661216
v -0.026286 -0.706509 0.769299
v -0.089298 -0.273664 0.114081
v -0.083884 0.479509 -0.533514
v 0.016051 0.759330 0.785424
v -0.004367 -0.971924 0.700449
v 0.227873 -0.700228 0.723168
v 0.031454 0.243429 0.335878
v 0.101104 0.738325 -0.257970
v 0.119000 -0.180397 -0.025666
v -0.218047 -0.722075 0.632666
v -0.080354 -0.317867 0.041214
v -0.123106 -0.559126 -0.123691
v 0.016860 0.802362 0.880860
v -0.041727 -0.998031 0.543001
v -0.011670 -0.748652 0.648698
v 0.000754 -1.079452 0.581595
v 0.114245 -0.159335 -0.095137
v 0.107125 0.776761 -0.487897
v 0.003561 0.534826 0.515012
v 0.091759 -0.171887 0.140408
v -0.132987 -0.470793 -0.035148
v 0.060754 0.312163 0.223882
v -0.088093 -0.705446 -0.405761
v 0.045042 0.176610 0.227136
v -0.094117 -0.892990 -0.523729
v -0.088669 -0.808981 -0.501470
v -0.128041 -0.504503 -0.072353
v -0.087658 0.651201 -0.220134
v -0.088896 -0.366280 0.101300
v 0.118621 0.595247 -0.040298
v -0.136847 0.443823 -0.027534
v 0.006269 -0.012750 0.192292
v -0.159100 -0.812210 0.589262
v -0.120254 0.455015 -0.533239
v -0.098231 0.597914 -0.341668
v -0.114122 0.542465 -0.156218
v -0.162873 -0.815252 0.782459
v -0.023615 0.460379 0.283391
v 0.000310 0.544420 0.471593
v 0.133773 0.523891 -0.028946
v -0.003036 -0.715513 0.734728
v -0.002287 -0.940488 0.660547
v 0.001264 -0.989204 0.648161
v 0.013431 0.689432 0.702461
v 0.235248 -0.682976 0.762474
v -0.085011 -0.851438 -0.505509
v 0.120123 -0.107625 -0.027948
v 0.015106 0.795084 0.850484
v 0.119604 -0.118801 -0.068231
v 0.139800 0.467031 0.090510
v -0.031358 -0.428808 -0.073137
v 0.049544 -1.050574 0.534186
v 0.098312 0.741392 -0.307041
v 0.095551 0.716124 -0.141450
v 0.144691 -0.814891 0.843320
v -0.087845 -0.717164 -0.352276
v 0.127515 -0.824386 0.844985
v 0.203328 -0.733741 0.810826
v 0.242473 -0.669768 0.628327
v 0.109600 0.769394 -0.511096
v 0.100098 -0.147575 -0.225618
v -0.099397 -0.463560 0.093797
v 0.058755 -0.147435 -0.539256
v -0.195582 -0.782535 0.756493
v -0.129156 -0.558465 -0.068346
v -0.000319 0.176063 0.340288
v -0.068495 -0.565326 0.107740
v 0.207962 -0.747835 0.752779
v 0.004938 -0.079760 0.426920
v 0.073094 0.476760 0.205916
v 0.018534 -0.538720 0.354656
v 0.053953 -0.198947 0.292785
v -0.041679 0.414140 0.265229
v 0.084062 0.472788 0.192295
v 0.003810 0.377097 0.306517
v -0.227575 -0.706830 0.660596
v -0.079014 -0.892728 -0.521360
v 0.179481 -0.806164 0.782325
v 0.019289 0.665320 0.680123
v -0.002154 -0.626916 0.606546
v -0.067292 -0.585785 0.231895
v 0.087315 -0.144869 -0.340960
v 0.014288 -0.681165 0.625662
v 0.216782 -0.727732 0.667139
v 0.011288 0.630853 0.637074
v 0.006590 -0.711359 0.642374
v 0.092507 0.752015 -0.170515
v -0.015879 -0.636514 0.549049
v 0.098970 0.753254 -0.384515
v 0.228644 -0.704031 0.602478
v -0.183469 -0.789579 0.729056
v -0.101384 -0.638747 -0.225306
v -0.088895 -0.818968 0.817011
v -0.127585 -0.596324 -0.033797
v 0.005499 0.163391 0.289970
v 0.001148 -0.838298 0.725048
v 0.204429 -0.757972 0.654259
v 0.091316 -0.104479 -0.281612
v 0.003145 -0.014925 0.429245
v -0.235637 -0.673720 0.755212
v -0.089675 -0.209419 0.120668
v 0.013561 0.055071 0.370976
v 0.161091 -0.805301 0.698091
v 0.123395 0.615836 -0.113188
v -0.000763 -1.126561 0.595513
v -0.102696 0.603657 -0.229094
v -0.099847 0.587658 -0.193821
v -0.001809 -1.123400 0.580203
v 0.000109 -1.048293 0.606535
v 0.121440 -0.156768 0.001138
v -0.123227 -0.512782 -0.120605
v 0.105280 0.647211 -0.098507
v 0.012810 -0.100042 0.178463
v 0.248451 -0.665452 0.662417
v -0.134044 0.462545 -0.057002
v 0.002856 0.082448 0.287609
v -0.015089 -0.538431 0.347368
v -0.001284 -0.634366 0.454423
v -0.109629 -0.593467 -0.204416
v -0.238407 -0.689875 0.623586
v -0.113270 0.523140 -0.061783
v 0.002555 0.317802 0.281544
v 0.134924 0.443758 0.167198
v 0.153303 -0.091197 0.376505
v -0.138487 -0.818232 0.623928
v -0.088059 -0.750030 -0.397292
v -0.182168 -0.776753 0.568912
v -0.116430 -0.857424 -0.518645
v -0.061080 -0.192159 0.270314
v 0.001157 -0.208887 0.443015
v 0.007512 0.131253 0.273435
v -0.026264 -0.830423 0.704263
v 0.085109 0.408616 0.244602
v -0.104202 -0.412843 0.053701
v -0.000281 -0.726814 0.570564
v -0.212180 -0.716812 0.804325
v -0.120678 0.522624 -0.124806
v -0.099508 -0.664022 -0.274079
v 0.077834 0.479715 0.312087
v 0.001216 0.218701 0.331060
v -0.095060 -0.382390 0.099811
v 0.000207 -0.654591 0.484934
v 0.141277 0.393818 0.076253
v 0.000415 -0.927326 0.738237
v 0.190461 -0.755614 0.828897
v 0.057758 0.253093 0.231354
v 0.250236 -0.669952 0.729395
v -0.082076 -0.445366 0.048155
v -0.094321 -0.341369 0.065825
v -0.085203 -0.258940 0.047857
v 0.212219 -0.723727 0.575496
v 0.150502 0.447813 0.125920
v 0.115903 -0.171146 -0.059679
v 0.112537 -0.132012 0.027281
v 0.003385 0.596469 0.535100
v 0.222946 -0.727520 0.725871
v -0.003775 -0.459294 0.302800
v 0.088558 -0.100359 -0.403308
v -0.192443 -0.748867 0.826222
v -0.119099 -0.590054 -0.100413
v -0.135949 0.409028 0.155819
v 0.119476 0.583472 -0.017531
v -0.069405 0.313388 0.237773
v 0.017820 0.819549 0.874189
v 0.014125 0.683468 0.661219
v 0.011359 0.806946 0.962074
v -0.212873 -0.751764 0.660752
v 0.164343 -0.795440 0.577866
v 0.018432 0.474467 0.196640
v -0.067722 -0.548643 0.144681
v 0.117979 0.546952 0.045943
v 0.202628 -0.770059 0.712502
v -0.104452 -0.536063 0.083265
v -0.001491 -0.704929 0.609130
v 0.002461 -0.080967 0.215852
v -0.145729 0.411679 0.126289
v -0.113390 -0.599622 -0.150745
v 0.162313 -0.804319 0.669614
v -0.194826 -0.767143 0.797629
v -0.001941 -0.903271 0.742238
v 0.006469 -0.127906 0.444875
v 0.231073 -0.696850 0.638155
v 0.043736 -0.329419 0.306241
v 0.092390 0.759665 -0.292870
v 0.019612 -0.679645 0.686593
v -0.027143 0.444255 0.253948
v -0.004484 0.518457 0.140855
v -0.039928 -0.450537 -0.046927
v -0.005378 -0.434117 0.263084
v 0.106079 0.259368 0.232255
v -0.093202 0.619369 -0.322575
v -0.219006 -0.727656 0.702810
v 0.004469 0.066840 0.390856
v -0.002483 -0.448926 0.425154
v -0.221709 -0.700800 0.596249
v -0.015747 -0.571749 0.446363
v -0.098842 0.571693 -0.149168
v -0.101846 0.497238 -0.518054
v 0.004380 0.442928 0.283557
v -0.095084 0.600545 -0.368098
v 0.012229 -0.712855 0.702965
v 0.141726 0.492204 0.004964
v 0.133264 0.545520 -0.062472
v -0.056237 -0.194954 0.111004
v -0.042883 0.189364 0.265533
v -0.087719 -0.785153 -0.468518
v -0.051334 -0.466046 0.194987
v -0.009311 -1.037043 0.572207
v -0.000422 -0.661800 0.524914
v 0.102251 0.767389 -0.541366
v -0.087342 0.634301 -0.182431
v -0.227668 -0.701566 0.731870
v 0.120728 0.401132 0.204544
v 0.092843 -0.147098 -0.277025
v 0.004069 0.148890 0.315821
v -0.044612 -0.297660 -0.053822
v 0.086631 -0.185106 -0.550816
v 0.031516 -0.523940 0.333655
v -0.005105 -0.856889 0.744172
v -0.140054 -0.516656 -0.017975
v 0.010872 0.113658 0.261661
v 0.124690 -0.213120 0.000742
v -0.067001 -0.583903 0.212257
v -0.037197 -0.374684 -0.078591
v 0.016076 0.721947 0.743465
v 0.011752 0.824706 1.028027
v 0.086077 -0.126629 -0.512780
v -0.088343 -0.308172 0.051976
v -0.251870 -0.664605 0.717926
v -0.138519 -0.816019 0.840740
v -0.143619 0.387555 0.093240
v -0.093203 0.622493 -0.273030
v 0.000688 -1.088923 0.654261
v 0.004226 0.005290 0.237707
v 0.001789 -0.330843 0.309657
v -0.087183 0.484662 0.162365
v -0.100389 0.573748 -0.443671
v -0.164199 -0.808884 0.688253
v 0.156554 -0.815319 0.611990
v 0.014478 0.826833 0.976092
v 0.088623 -0.131995 -0.383503
v 0.092360 0.368131 0.220239
v -0.050221 -0.636413 0.641648
v 0.129064 0.578661 -0.084723
v 0.000885 -0.795325 0.565134
v -0.101427 0.500342 0.086449
v 0.000798 -0.962948 0.760658
v 0.002108 0.499619 0.488363
v 0.018210 0.820917 0.907892
v -0.002783 0.367355 0.280922
v 0.011200 0.800833 1.012481
v -0.002294 -0.554229 0.383491
v 0.000955 0.112833 0.299157
v 0.005610 -0.168971 0.212475
v -0.192604 -0.776453 0.663771
v -0.005583 -0.619816 0.487410
v 0.089707 -0.798937 0.824779
v -0.000131 -1.166376 0.624782
v -0.144641 0.399163 0.044153
v -0.042088 -0.569255 0.012478
v -0.022028 -0.377820 0.233030
v 0.008882 0.628263 0.584075
v -0.075606 0.403620 0.345456
v -0.001899 -0.015364 0.264987
v -0.005950 -0.568431 0.405837
v -0.070846 -0.317455 0.121900
v 0.105041 0.674915 -0.153068
v -0.099672 0.430208 0.198239
v -0.000703 0.447107 0.455852
v 0.010286 0.804226 1.080997
v 0.003560 -0.260499 0.281414
v -0.085255 -0.811853 -0.459838
v 0.002839 -0.296115 0.218790
v 0.003004 -0.162833 0.237549
v 0.222071 -0.708483 0.780786
v 0.002899 0.326698 0.324465
v -0.135412 -0.446457 -0.039984
v -0.148983 0.421855 0.058585
v -0.003058 -0.594451 0.434108
v -0.003944 -0.801885 0.676732
v 0.104571 0.708196 -0.194648
v -0.091769 -0.683484 -0.383153
v -0.096703 -0.654856 -0.323667
v 0.015048 -0.780389 0.698001
v 0.185113 -0.770872 0.574939
v 0.085975 -0.103491 -0.340939
v 0.111546 0.645049 -0.127037
v 0.001121 -0.649204 0.507995
v -0.117637 0.517831 -0.521578
v -0.208443 -0.751678 0.608358
v -0.245768 -0.674214 0.683818
v 0.208860 -0.740746 0.609489
v -0.129821 0.492296 -0.099331
v -0.005910 0.269753 0.282583
v -0.171838 -0.784188 0.845572
v -0.002867 -0.865915 0.635746
v -0.134259 -0.584617 0.015986
v -0.117186 0.501146 -0.000439
v 0.081670 0.533677 0.133200
v -0.074446 -0.227887 0.051283
v 0.015655 0.715100 0.712021
v -0.004605 -0.447500 0.319952
v -0.010688 -0.559614 0.400703
v -0.000364 -0.215849 0.211343
v -0.004828 0.387752 0.353769
v -0.247411 -0.660109 0.650053
v -0.010827 -0.595699 0.464644
v -0.220484 -0.710396 0.775772
v 0.000997 -0.680194 0.570369
v 0.098231 -0.109150 -0.217522
v -0.028021 -0.065228 0.285834
v 0.235956 -0.694077 0.686542
v -0.103684 0.543289 -0.519330
v 0.088504 -0.110671 -0.513805
v 0.171562 -0.808447 0.755860
v 0.111661 -0.122215 -0.133893
v 0.001679 0.041629 0.246433
v 0.099803 0.753810 -0.427820
v 0.102900 0.772505 -0.476811
v 0.078388 -0.266089 0.218614
v 0.092597 -0.157365 -0.530370
v -0.010635 -0.357745 0.282838
v -0.098501 0.592357 -0.392488
v 0.018285 0.789981 0.819010
v 0.003856 0.578672 0.565952
v -0.000323 -0.133096 0.189422
v -0.113794 0.399181 0.215130
v 0.001963 -0.983784 0.580531
v 0.015268 0.761716 0.763312
v -0.083692 -0.456324 0.142951
v 0.015081 -0.778087 0.774831
v 0.107299 -0.153557 -0.149426
v 0.000210 0.024639 0.283060
v 0.094331 0.750144 -0.234289
v -0.115281 -0.540978 -0.163767
v -0.151807 -0.810655 0.654256
v 0.101676 -0.200582 0.140627
v 0.103154 -0.274454 0.129671
v 0.070517 -0.074763 0.306101
