v 0.004959 -0.159129 0.230182
v 0.001148 -0.838298 0.725048
v 0.003810 0.377097 0.306517
v -0.002294 -0.554229 0.383491
v 0.007512 0.131253 0.273435
v -0.088079 -0.420661 0.139754
v 0.000997 -0.680194 0.570369
v 0.007689 -0.301710 0.286343
v 0.018210 0.820917 0.907892
v 0.102900 0.772505 -0.476811
v -0.085011 -0.851438 -0.505509
v 0.086077 -0.126629 -0.512780
v -0.129821 0.492296 -0.099331
v 0.139800 0.467031 0.090510
v -0.135949 0.409028 0.155819
v -0.001809 -1.123400 0.580203
v 0.107299 -0.153557 -0.149426
v -0.109629 -0.593467 -0.204416
v -0.101846 0.497238 -0.518054
v 0.008882 0.628263 0.584075
v 0.111546 0.645049 -0.127037
v -0.074446 -0.227887 0.051283
v 0.004380 0.442928 0.283557
v -0.227668 -0.701566 0.731870
v -0.087845 -0.717164 -0.352276
v 0.016076 0.721947 0.743465
v 0.001963 -0.983784 0.580531
v -0.102271 0.604207 -0.301245
v 0.097098 -0.232756 0.137928
v 0.085975 -0.103491 -0.340939
v 0.222071 -0.708483 0.780786
v -0.140054 -0.516656 -0.017975
v -0.040286 -0.631778 0.158493
v 0.010286 0.804226 1.080997
v 0.092390 0.759665 -0.292870
v 0.003145 -0.014925 0.429245
v 0.208860 -0.740746 0.609489
v 0.000798 -0.962948 0.760658
v -0.009635 0.253963 0.348920
v -0.181215 -0.795874 0.606253
v 0.133773 0.523891 -0.028946
v -0.126353 0.463083 0.062644
v 0.120728 0.401132 0.204544
v 0.002108 0.499619 0.488363
v 0.127515 -0.824386 0.844985
v -0.037197 -0.374684 -0.078591
v -0.005347 -0.008492 0.257114
v -0.005378 -0.434117 0.263084
v 0.023378 -0.745506 0.671719
v -0.138519 -0.816019 0.840740
v -0.099847 0.587658 -0.193821
v -0.100389 0.573748 -0.443671
v -0.104452 -0.536063 0.083265
v -0.126324 -0.464765 -0.093034
v 0.121440 -0.156768 0.001138
v -0.001880 -0.827261 0.571202
v 0.091422 0.726770 -0.186155
v -0.004484 0.518457 0.140855
v -0.087381 -0.775447 -0.423768
v 0.018285 0.789981 0.819010
v 0.248451 -0.665452 0.662417
v -0.099508 -0.664022 -0.274079
v -0.136847 0.443823 -0.027534
v 0.014125 0.683468 0.661219
v 0.100098 -0.147575 -0.225618
v -0.238407 -0.689875 0.623586
v -0.070846 -0.317455 0.121900
v -0.194826 -0.767143 0.797629
v -0.119099 -0.590054 -0.100413
v 0.098970 0.753254 -0.384515
v 0.161091 -0.805301 0.698091
v -0.087658 0.651201 -0.220134
v 0.000109 -1.048293 0.606535
v 0.000498 0.188501 0.294734
v 0.014478 0.826833 0.976092
v 0.086631 -0.185106 -0.550816
v 0.117979 0.546952 0.045943
v 0.089135 -0.099362 -0.440987
v 0.102251 0.767389 -0.541366
v -0.245768 -0.674214 0.683818
